<mxfile host="app.diagrams.net" modified="2024-01-22T19:22:48.544Z" agent="Mozilla/5.0 (X11; Ubuntu; Linux x86_64; rv:121.0) Gecko/20100101 Firefox/121.0" etag="kHcIAzgNaXES6WZw5gSk" version="22.1.21" type="device" pages="2">
  <diagram name="Page-1" id="KMDvYZMeByCKc2EvG4OS">
    <mxGraphModel dx="990" dy="332" grid="1" gridSize="10" guides="1" tooltips="1" connect="1" arrows="1" fold="1" page="1" pageScale="1" pageWidth="827" pageHeight="1169" math="0" shadow="0">
      <root>
        <mxCell id="0" />
        <mxCell id="1" parent="0" />
        <mxCell id="PbDBFUf6xaX6WhNyDskn-1" value="&lt;div style=&quot;font-size: 22px;&quot;&gt;&lt;font style=&quot;font-size: 22px;&quot;&gt;+&lt;br&gt;&lt;/font&gt;&lt;/div&gt;" style="rounded=0;whiteSpace=wrap;html=1;" parent="1" vertex="1">
          <mxGeometry x="280" y="120" width="40" height="40" as="geometry" />
        </mxCell>
        <mxCell id="PbDBFUf6xaX6WhNyDskn-2" value="2" style="rounded=0;whiteSpace=wrap;html=1;fontSize=22;" parent="1" vertex="1">
          <mxGeometry x="120" y="280" width="40" height="40" as="geometry" />
        </mxCell>
        <mxCell id="PbDBFUf6xaX6WhNyDskn-3" value="&lt;font size=&quot;1&quot;&gt;&lt;code style=&quot;font-size: 22px;&quot;&gt;×&lt;/code&gt;&lt;/font&gt;" style="rounded=0;whiteSpace=wrap;html=1;" parent="1" vertex="1">
          <mxGeometry x="440" y="40" width="40" height="40" as="geometry" />
        </mxCell>
        <mxCell id="PbDBFUf6xaX6WhNyDskn-4" value="6" style="rounded=0;whiteSpace=wrap;html=1;fontSize=22;" parent="1" vertex="1">
          <mxGeometry x="680" y="200" width="40" height="40" as="geometry" />
        </mxCell>
        <mxCell id="PbDBFUf6xaX6WhNyDskn-5" value="3" style="rounded=0;whiteSpace=wrap;html=1;fontSize=22;" parent="1" vertex="1">
          <mxGeometry x="280" y="280" width="40" height="40" as="geometry" />
        </mxCell>
        <mxCell id="PbDBFUf6xaX6WhNyDskn-6" value="+" style="rounded=0;whiteSpace=wrap;html=1;fontSize=22;" parent="1" vertex="1">
          <mxGeometry x="600" y="120" width="40" height="40" as="geometry" />
        </mxCell>
        <mxCell id="PbDBFUf6xaX6WhNyDskn-9" value="" style="endArrow=none;html=1;rounded=0;" parent="1" edge="1">
          <mxGeometry width="50" height="50" relative="1" as="geometry">
            <mxPoint x="160" y="280" as="sourcePoint" />
            <mxPoint x="200" y="240" as="targetPoint" />
          </mxGeometry>
        </mxCell>
        <mxCell id="PbDBFUf6xaX6WhNyDskn-10" value="" style="endArrow=none;html=1;rounded=0;" parent="1" edge="1">
          <mxGeometry width="50" height="50" relative="1" as="geometry">
            <mxPoint x="560" y="200" as="sourcePoint" />
            <mxPoint x="600" y="160" as="targetPoint" />
          </mxGeometry>
        </mxCell>
        <mxCell id="PbDBFUf6xaX6WhNyDskn-12" value="" style="endArrow=none;html=1;rounded=0;entryX=1;entryY=1;entryDx=0;entryDy=0;exitX=0;exitY=0;exitDx=0;exitDy=0;" parent="1" source="PbDBFUf6xaX6WhNyDskn-14" target="PbDBFUf6xaX6WhNyDskn-1" edge="1">
          <mxGeometry width="50" height="50" relative="1" as="geometry">
            <mxPoint x="400" y="200" as="sourcePoint" />
            <mxPoint x="360" y="160" as="targetPoint" />
          </mxGeometry>
        </mxCell>
        <mxCell id="PbDBFUf6xaX6WhNyDskn-13" value="" style="endArrow=none;html=1;rounded=0;entryX=1;entryY=1;entryDx=0;entryDy=0;exitX=0;exitY=0;exitDx=0;exitDy=0;" parent="1" edge="1">
          <mxGeometry width="50" height="50" relative="1" as="geometry">
            <mxPoint x="680" y="200" as="sourcePoint" />
            <mxPoint x="640" y="160" as="targetPoint" />
          </mxGeometry>
        </mxCell>
        <mxCell id="PbDBFUf6xaX6WhNyDskn-14" value="&lt;div&gt;&lt;font size=&quot;1&quot;&gt;&lt;code style=&quot;font-size: 22px;&quot;&gt;4&lt;/code&gt;&lt;/font&gt;&lt;/div&gt;" style="rounded=0;whiteSpace=wrap;html=1;" parent="1" vertex="1">
          <mxGeometry x="360" y="200" width="40" height="40" as="geometry" />
        </mxCell>
        <mxCell id="PbDBFUf6xaX6WhNyDskn-16" value="&lt;font size=&quot;1&quot;&gt;&lt;code style=&quot;font-size: 22px;&quot;&gt;×&lt;/code&gt;&lt;/font&gt;" style="rounded=0;whiteSpace=wrap;html=1;" parent="1" vertex="1">
          <mxGeometry x="200" y="200" width="40" height="40" as="geometry" />
        </mxCell>
        <mxCell id="PbDBFUf6xaX6WhNyDskn-17" value="" style="endArrow=none;html=1;rounded=0;entryX=1;entryY=1;entryDx=0;entryDy=0;exitX=0;exitY=0;exitDx=0;exitDy=0;" parent="1" edge="1">
          <mxGeometry width="50" height="50" relative="1" as="geometry">
            <mxPoint x="280" y="280" as="sourcePoint" />
            <mxPoint x="240" y="240" as="targetPoint" />
          </mxGeometry>
        </mxCell>
        <mxCell id="PbDBFUf6xaX6WhNyDskn-18" value="" style="endArrow=none;html=1;rounded=0;entryX=1;entryY=1;entryDx=0;entryDy=0;" parent="1" target="PbDBFUf6xaX6WhNyDskn-3" edge="1">
          <mxGeometry width="50" height="50" relative="1" as="geometry">
            <mxPoint x="600" y="120" as="sourcePoint" />
            <mxPoint x="490" y="100" as="targetPoint" />
          </mxGeometry>
        </mxCell>
        <mxCell id="PbDBFUf6xaX6WhNyDskn-19" value="" style="endArrow=none;html=1;rounded=0;entryX=0;entryY=1;entryDx=0;entryDy=0;" parent="1" target="PbDBFUf6xaX6WhNyDskn-3" edge="1">
          <mxGeometry width="50" height="50" relative="1" as="geometry">
            <mxPoint x="320" y="120" as="sourcePoint" />
            <mxPoint x="360" y="80" as="targetPoint" />
          </mxGeometry>
        </mxCell>
        <mxCell id="PbDBFUf6xaX6WhNyDskn-20" value="" style="endArrow=none;html=1;rounded=0;entryX=1;entryY=0;entryDx=0;entryDy=0;exitX=0;exitY=1;exitDx=0;exitDy=0;" parent="1" source="PbDBFUf6xaX6WhNyDskn-1" target="PbDBFUf6xaX6WhNyDskn-16" edge="1">
          <mxGeometry width="50" height="50" relative="1" as="geometry">
            <mxPoint x="280" y="240" as="sourcePoint" />
            <mxPoint x="200" y="200" as="targetPoint" />
          </mxGeometry>
        </mxCell>
        <mxCell id="PbDBFUf6xaX6WhNyDskn-21" value="5" style="rounded=0;whiteSpace=wrap;html=1;fontSize=22;" parent="1" vertex="1">
          <mxGeometry x="520" y="200" width="40" height="40" as="geometry" />
        </mxCell>
      </root>
    </mxGraphModel>
  </diagram>
  <diagram id="YeEfUyfpD85u4iKed4-g" name="Page-2">
    <mxGraphModel dx="990" dy="332" grid="0" gridSize="10" guides="1" tooltips="1" connect="1" arrows="1" fold="1" page="0" pageScale="1" pageWidth="827" pageHeight="1169" math="0" shadow="0">
      <root>
        <mxCell id="0" />
        <mxCell id="1" parent="0" />
        <mxCell id="Ogr5Vks2r92jhDp6syJn-1" value="&lt;font style=&quot;font-size: 20px;&quot;&gt;A&lt;/font&gt;" style="whiteSpace=wrap;html=1;aspect=fixed;fontFamily=Courier New;" vertex="1" parent="1">
          <mxGeometry x="160" y="120" width="40" height="40" as="geometry" />
        </mxCell>
        <mxCell id="Ogr5Vks2r92jhDp6syJn-2" value="&lt;div style=&quot;font-size: 20px;&quot;&gt;&lt;font style=&quot;font-size: 20px;&quot;&gt;&lt;span style=&quot;text-decoration: overline;&quot;&gt;A&lt;/span&gt;&lt;/font&gt;&lt;/div&gt;" style="whiteSpace=wrap;html=1;aspect=fixed;fontSize=14;fontFamily=Courier New;" vertex="1" parent="1">
          <mxGeometry x="160" y="280" width="40" height="40" as="geometry" />
        </mxCell>
        <mxCell id="Ogr5Vks2r92jhDp6syJn-3" value="&lt;font style=&quot;font-size: 20px;&quot;&gt;B&lt;/font&gt;" style="whiteSpace=wrap;html=1;aspect=fixed;fontFamily=Courier New;" vertex="1" parent="1">
          <mxGeometry x="280" y="80" width="40" height="40" as="geometry" />
        </mxCell>
        <mxCell id="Ogr5Vks2r92jhDp6syJn-4" value="&lt;font style=&quot;font-size: 20px;&quot;&gt;&lt;span style=&quot;text-decoration: overline;&quot;&gt;B&lt;/span&gt;&lt;/font&gt;" style="whiteSpace=wrap;html=1;aspect=fixed;fontSize=14;fontFamily=Courier New;" vertex="1" parent="1">
          <mxGeometry x="280" y="320" width="40" height="40" as="geometry" />
        </mxCell>
        <mxCell id="Ogr5Vks2r92jhDp6syJn-5" value="P(A)" style="endArrow=none;html=1;rounded=0;fontSize=20;entryX=0;entryY=0.5;entryDx=0;entryDy=0;fontFamily=Courier New;" edge="1" parent="1" target="Ogr5Vks2r92jhDp6syJn-1">
          <mxGeometry y="28" width="50" height="50" relative="1" as="geometry">
            <mxPoint x="80" y="220" as="sourcePoint" />
            <mxPoint x="430" y="210" as="targetPoint" />
            <mxPoint x="-1" as="offset" />
          </mxGeometry>
        </mxCell>
        <mxCell id="Ogr5Vks2r92jhDp6syJn-6" value="P&lt;sub&gt;A&lt;/sub&gt;(B)" style="endArrow=none;html=1;rounded=0;fontSize=20;entryX=0;entryY=0.5;entryDx=0;entryDy=0;exitX=1;exitY=0.5;exitDx=0;exitDy=0;fontFamily=Courier New;" edge="1" parent="1" source="Ogr5Vks2r92jhDp6syJn-1" target="Ogr5Vks2r92jhDp6syJn-3">
          <mxGeometry x="0.3" y="27" width="50" height="50" relative="1" as="geometry">
            <mxPoint x="200" y="130" as="sourcePoint" />
            <mxPoint x="300" y="90" as="targetPoint" />
            <mxPoint as="offset" />
          </mxGeometry>
        </mxCell>
        <mxCell id="Ogr5Vks2r92jhDp6syJn-7" value="" style="endArrow=none;html=1;rounded=0;fontSize=20;entryX=0;entryY=0.5;entryDx=0;entryDy=0;" edge="1" parent="1" target="Ogr5Vks2r92jhDp6syJn-2">
          <mxGeometry width="50" height="50" relative="1" as="geometry">
            <mxPoint x="80" y="220" as="sourcePoint" />
            <mxPoint x="170" y="150" as="targetPoint" />
          </mxGeometry>
        </mxCell>
        <mxCell id="Ogr5Vks2r92jhDp6syJn-8" value="&lt;div&gt;P(&lt;font style=&quot;font-size: 20px;&quot;&gt;&lt;span style=&quot;text-decoration: overline;&quot;&gt;A&lt;/span&gt;&lt;/font&gt;)&lt;br&gt;&lt;/div&gt;" style="edgeLabel;html=1;align=center;verticalAlign=middle;resizable=0;points=[];fontSize=20;fontFamily=Courier New;" vertex="1" connectable="0" parent="Ogr5Vks2r92jhDp6syJn-7">
          <mxGeometry x="-0.3483" y="1" relative="1" as="geometry">
            <mxPoint x="-7" y="35" as="offset" />
          </mxGeometry>
        </mxCell>
        <mxCell id="Ogr5Vks2r92jhDp6syJn-9" value="P&lt;sub&gt;&lt;span style=&quot;text-decoration: overline;&quot;&gt;A&lt;/span&gt;&lt;/sub&gt;(&lt;font style=&quot;font-size: 20px;&quot;&gt;&lt;span style=&quot;text-decoration: overline;&quot;&gt;B&lt;/span&gt;&lt;/font&gt;)" style="endArrow=none;html=1;rounded=0;fontSize=20;entryX=0;entryY=0.5;entryDx=0;entryDy=0;exitX=1;exitY=0.5;exitDx=0;exitDy=0;fontFamily=Courier New;" edge="1" parent="1" source="Ogr5Vks2r92jhDp6syJn-2" target="Ogr5Vks2r92jhDp6syJn-4">
          <mxGeometry x="0.3" y="-27" width="50" height="50" relative="1" as="geometry">
            <mxPoint x="230" y="220" as="sourcePoint" />
            <mxPoint x="280" y="180" as="targetPoint" />
            <mxPoint as="offset" />
          </mxGeometry>
        </mxCell>
        <mxCell id="Ogr5Vks2r92jhDp6syJn-10" value="&lt;font style=&quot;font-size: 20px;&quot;&gt;&lt;span style=&quot;text-decoration: overline;&quot;&gt;B&lt;/span&gt;&lt;/font&gt;" style="whiteSpace=wrap;html=1;aspect=fixed;fontSize=14;fontFamily=Courier New;" vertex="1" parent="1">
          <mxGeometry x="280" y="160" width="40" height="40" as="geometry" />
        </mxCell>
        <mxCell id="Ogr5Vks2r92jhDp6syJn-11" value="P&lt;sub&gt;A&lt;/sub&gt;(&lt;font style=&quot;font-size: 20px;&quot;&gt;&lt;span style=&quot;text-decoration: overline;&quot;&gt;B&lt;/span&gt;&lt;/font&gt;)" style="endArrow=none;html=1;rounded=0;fontSize=20;entryX=0;entryY=0.5;entryDx=0;entryDy=0;exitX=1;exitY=0.5;exitDx=0;exitDy=0;fontFamily=Courier New;" edge="1" parent="1" target="Ogr5Vks2r92jhDp6syJn-10">
          <mxGeometry x="0.3" y="-27" width="50" height="50" relative="1" as="geometry">
            <mxPoint x="200" y="140" as="sourcePoint" />
            <mxPoint x="280" y="100" as="targetPoint" />
            <mxPoint as="offset" />
          </mxGeometry>
        </mxCell>
        <mxCell id="Ogr5Vks2r92jhDp6syJn-12" value="&lt;font style=&quot;font-size: 21px;&quot;&gt;B&lt;/font&gt;" style="whiteSpace=wrap;html=1;aspect=fixed;fontSize=14;fontFamily=Courier New;" vertex="1" parent="1">
          <mxGeometry x="280" y="240" width="40" height="40" as="geometry" />
        </mxCell>
        <mxCell id="Ogr5Vks2r92jhDp6syJn-13" value="P&lt;sub&gt;&lt;span style=&quot;text-decoration: overline;&quot;&gt;A&lt;/span&gt;&lt;/sub&gt;(B)" style="endArrow=none;html=1;rounded=0;fontSize=20;entryX=0;entryY=0.5;entryDx=0;entryDy=0;exitX=1;exitY=0.5;exitDx=0;exitDy=0;fontFamily=Courier New;" edge="1" parent="1" source="Ogr5Vks2r92jhDp6syJn-2" target="Ogr5Vks2r92jhDp6syJn-12">
          <mxGeometry x="0.3" y="27" width="50" height="50" relative="1" as="geometry">
            <mxPoint x="200" y="220" as="sourcePoint" />
            <mxPoint x="280" y="100" as="targetPoint" />
            <mxPoint as="offset" />
          </mxGeometry>
        </mxCell>
      </root>
    </mxGraphModel>
  </diagram>
</mxfile>
